{
  "accessors": [
    {
      "bufferView": 2,
      "componentType": 5126,
      "count": 12175,
      "max": [
        1.1836458444595337,
        0.26764950156211853,
        2.9985930919647217
      ],
      "min": [
        -1.1836498975753784,
        -0.2543827295303345,
        -2.004051680160046e-07
      ],
      "type": "VEC3"
    },
    {
      "bufferView": 2,
      "byteOffset": 146100,
      "componentType": 5126,
      "count": 12175,
      "max": [
        1.0,
        1.0,
        0.9998436570167542
      ],
      "min": [
        -1.0,
        -1.0,
        -0.9999913573265076
      ],
      "type": "VEC3"
    },
    {
      "bufferView": 1,
      "componentType": 5126,
      "count": 12175,
      "max": [
        0.9980469942092896,
        0.9976999759674072
      ],
      "min": [
        0.003599169896915555,
        0.0029296875
      ],
      "type": "VEC2"
    },
    {
      "bufferView": 0,
      "componentType": 5125,
      "count": 42978,
      "type": "SCALAR"
    }
  ],
  "asset": {
    "extras": {
      "author": "Aliza tiktok (https://sketchfab.com/Aliza.tiktok)",
      "license": "CC-BY-4.0 (http://creativecommons.org/licenses/by/4.0/)",
      "source": "https://sketchfab.com/3d-models/sukuna-940846a909234971a6caca556ad8b490",
      "title": "Sukuna"
    },
    "generator": "Sketchfab-16.72.0",
    "version": "2.0"
  },
  "bufferViews": [
    {
      "buffer": 0,
      "byteLength": 171912,
      "name": "floatBufferViews",
      "target": 34963
    },
    {
      "buffer": 0,
      "byteLength": 97400,
      "byteOffset": 171912,
      "byteStride": 8,
      "name": "floatBufferViews",
      "target": 34962
    },
    {
      "buffer": 0,
      "byteLength": 292200,
      "byteOffset": 269312,
      "byteStride": 12,
      "name": "floatBufferViews",
      "target": 34962
    }
  ],
  "buffers": [
    {
      "byteLength": 561512,
      "uri": "scene.bin"
    }
  ],
  "images": [
    {
      "uri": "textures/Liangmiansunuotexroleliangmiansunuo01Mtl_baseColor.png"
    }
  ],
  "materials": [
    {
      "doubleSided": true,
      "name": "Liangmiansunuotexroleliangmiansunuo01Mtl",
      "pbrMetallicRoughness": {
        "baseColorTexture": {
          "index": 0
        },
        "metallicFactor": 0.12204110455068795,
        "roughnessFactor": 0.4768942511207308
      }
    }
  ],
  "meshes": [
    {
      "name": "Object_0",
      "primitives": [
        {
          "attributes": {
            "NORMAL": 1,
            "POSITION": 0,
            "TEXCOORD_0": 2
          },
          "indices": 3,
          "material": 0,
          "mode": 4
        }
      ]
    }
  ],
  "nodes": [
    {
      "children": [
        1
      ],
      "matrix": [
        0.6575930118560791,
        0.0,
        0.0,
        0.0,
        0.0,
        1.4601498051904451e-16,
        -0.6575930118560791,
        0.0,
        0.0,
        0.6575930118560791,
        1.4601498051904451e-16,
        0.0,
        0.0,
        0.0,
        0.0,
        1.0
      ],
      "name": "Sketchfab_model"
    },
    {
      "children": [
        2
      ],
      "name": "Sukuna.obj.cleaner.materialmerger.gles"
    },
    {
      "mesh": 0,
      "name": "Object_2"
    }
  ],
  "samplers": [
    {
      "magFilter": 9729,
      "minFilter": 9987,
      "wrapS": 10497,
      "wrapT": 10497
    }
  ],
  "scene": 0,
  "scenes": [
    {
      "name": "Sketchfab_Scene",
      "nodes": [
        0
      ]
    }
  ],
  "textures": [
    {
      "sampler": 0,
      "source": 0
    }
  ]
}
